<?xml version="1.0" encoding="UTF-8" standalone="no"?>
<!DOCTYPE svg PUBLIC "-//W3C//DTD SVG 20010904//EN"
              "http://www.w3.org/TR/2001/REC-SVG-20010904/DTD/svg10.dtd">

<svg xmlns="http://www.w3.org/2000/svg"
     width="6.4in" height="6.4in"
     viewBox="0 0 1920 1920">
  <path id="Markering"
        fill="black" stroke="white" stroke-width="5"
        d="M 1137.00,209.00
           C 1128.00,201.79 1124.95,184.44 1112.00,175.76
             1105.46,171.38 1097.59,170.89 1090.00,170.32
             1085.20,169.96 1078.07,171.35 1074.00,173.97
             1065.66,179.32 1056.26,197.15 1055.19,207.00
             1055.19,207.00 1056.00,220.00 1056.00,220.00
             1056.00,220.00 1056.00,235.00 1056.00,235.00
             1055.98,237.14 1056.19,240.78 1054.40,242.30
             1051.43,244.81 1047.10,240.37 1041.00,239.17
             1041.00,239.17 1017.00,236.91 1017.00,236.91
             1012.35,236.60 1009.49,235.70 1005.00,238.14
             998.22,241.81 988.25,254.83 985.07,262.00
             985.07,262.00 982.33,271.00 982.33,271.00
             982.33,271.00 977.60,283.00 977.60,283.00
             976.04,287.75 974.07,305.70 974.00,311.00
             973.83,325.61 972.74,332.11 975.08,347.00
             975.74,351.21 976.51,355.09 970.98,355.84
             970.98,355.84 957.00,355.02 957.00,355.02
             948.18,355.27 943.99,360.43 940.72,368.00
             936.76,377.15 933.51,392.03 931.40,402.00
             929.76,409.71 928.10,412.40 928.00,421.00
             927.88,431.40 928.16,432.81 929.75,443.00
             930.13,445.41 931.06,449.32 928.93,451.16
             926.74,453.05 919.02,450.34 916.00,450.21
             909.36,449.93 900.27,457.14 897.70,463.00
             897.70,463.00 895.17,471.00 895.17,471.00
             890.83,484.06 885.84,498.13 886.00,512.00
             886.00,512.00 888.65,532.91 888.65,532.91
             888.00,535.84 885.08,537.95 883.08,540.04
             879.61,543.68 872.40,551.47 870.85,556.00
             870.85,556.00 869.54,563.00 869.54,563.00
             867.13,575.83 867.02,574.70 867.00,588.00
             867.00,588.00 865.20,610.00 865.20,610.00
             865.08,612.99 866.02,617.41 865.20,620.00
             864.54,623.52 862.33,625.17 860.57,628.00
             860.57,628.00 856.10,639.00 856.10,639.00
             853.78,645.81 853.99,651.01 854.00,658.00
             854.01,665.41 857.25,688.03 859.30,695.00
             860.91,700.46 864.16,703.16 864.77,708.00
             865.56,714.20 860.41,720.88 857.35,726.00
             853.60,732.25 852.09,736.70 852.00,744.00
             851.93,750.58 851.30,769.79 853.11,775.00
             855.08,780.68 858.41,782.48 861.00,788.00
             856.55,788.04 851.72,787.99 848.27,791.30
             845.43,794.02 844.95,798.03 842.07,799.56
             839.55,800.91 834.04,798.52 828.80,805.18
             824.23,811.00 825.79,825.08 817.00,824.14
             814.55,823.88 810.25,821.12 808.00,819.86
             808.00,819.86 793.00,812.22 793.00,812.22
             767.51,800.11 743.78,783.60 720.00,768.53
             720.00,768.53 693.00,751.12 693.00,751.12
             693.00,751.12 672.00,736.13 672.00,736.13
             672.00,736.13 663.00,731.30 663.00,731.30
             649.63,723.20 629.88,710.18 618.00,700.39
             618.00,700.39 605.00,688.17 605.00,688.17
             586.93,671.82 570.63,654.40 554.71,636.00
             533.99,612.05 506.74,575.70 491.77,548.00
             491.77,548.00 470.99,501.00 470.99,501.00
             470.99,501.00 462.17,481.00 462.17,481.00
             462.17,481.00 454.45,461.00 454.45,461.00
             449.43,448.48 443.71,431.30 437.35,420.00
             431.47,409.58 427.33,401.25 418.00,393.30
             415.56,391.22 409.72,386.30 406.31,388.13
             403.79,389.48 403.94,393.56 404.09,396.00
             404.09,396.00 407.88,420.00 407.88,420.00
             411.89,436.88 418.38,452.80 424.41,469.00
             424.41,469.00 431.07,488.00 431.07,488.00
             434.24,496.12 443.47,506.61 443.00,515.00
             430.24,500.29 420.24,482.86 410.57,466.00
             410.57,466.00 394.31,438.00 394.31,438.00
             394.31,438.00 367.86,387.00 367.86,387.00
             361.85,376.23 355.46,361.93 346.70,353.54
             341.65,348.70 340.18,346.42 333.00,346.00
             331.65,356.16 336.70,368.86 338.54,379.00
             338.54,379.00 339.68,387.00 339.68,387.00
             342.96,401.48 349.01,415.32 354.55,429.00
             354.55,429.00 358.23,439.00 358.23,439.00
             358.23,439.00 371.75,467.00 371.75,467.00
             371.75,467.00 377.59,479.00 377.59,479.00
             383.21,489.25 389.78,500.76 396.89,510.00
             401.51,516.01 407.22,520.83 406.00,529.00
             398.91,521.73 396.59,516.73 390.77,509.00
             368.25,479.11 351.60,445.75 335.78,412.00
             335.78,412.00 321.77,380.00 321.77,380.00
             319.09,375.08 316.07,369.42 310.00,368.28
             303.83,367.12 301.38,370.99 299.23,376.00
             296.01,383.51 294.85,393.80 294.18,402.00
             294.00,404.18 294.65,409.62 293.65,411.11
             291.92,413.69 284.20,411.90 281.00,412.04
             270.22,412.51 269.89,416.59 267.38,425.00
             265.80,430.31 265.10,430.43 263.80,437.00
             262.21,445.10 261.01,459.96 262.32,468.00
             262.32,468.00 267.43,489.00 267.43,489.00
             269.58,498.25 275.27,508.54 273.00,518.00
             255.00,512.89 249.18,528.17 249.00,543.00
             248.83,558.24 251.76,575.28 258.60,589.00
             263.21,598.25 276.21,618.38 278.00,626.00
             270.85,623.91 264.64,618.19 260.00,617.43
             253.11,616.30 245.42,623.41 245.04,630.00
             244.33,642.36 253.23,658.59 259.40,669.00
             262.00,673.39 264.35,677.97 267.52,682.00
             270.35,685.60 279.15,693.11 280.21,696.01
             282.27,701.63 271.72,707.87 269.73,713.04
             267.41,719.07 272.19,731.47 275.03,737.00
             278.50,743.77 289.08,759.86 293.75,766.00
             296.07,769.06 302.52,774.98 303.19,778.00
             304.31,783.02 295.25,794.38 293.64,800.00
             291.49,807.46 297.42,822.17 300.86,829.00
             305.52,838.23 312.58,849.12 321.00,855.22
             325.45,858.44 340.43,865.07 342.19,868.21
             343.87,871.21 341.34,874.12 340.23,878.00
             339.01,882.26 339.68,885.97 341.35,890.00
             345.30,899.57 356.24,915.10 364.01,921.67
             371.65,928.13 377.58,927.06 379.96,931.22
             382.07,934.90 378.76,940.41 379.34,946.00
             380.02,952.59 385.44,963.55 389.22,969.00
             392.43,973.64 402.09,982.53 407.00,984.99
             410.38,986.67 417.66,986.16 421.07,991.21
             424.32,996.05 423.36,1008.70 429.39,1015.96
             433.29,1020.66 438.70,1022.18 444.00,1024.75
             446.05,1025.74 449.41,1027.04 450.53,1029.10
             452.13,1032.07 449.34,1035.41 449.14,1040.00
             448.92,1045.27 451.42,1048.22 454.73,1051.96
             457.70,1055.31 460.40,1057.99 465.00,1058.78
             468.50,1059.38 474.78,1058.54 477.39,1061.56
             480.07,1064.74 475.53,1069.99 477.39,1077.00
             478.66,1081.54 486.18,1089.88 491.00,1090.52
             491.00,1090.52 507.00,1089.00 507.00,1089.00
             505.89,1102.75 504.13,1103.43 515.00,1113.98
             517.74,1116.64 520.83,1119.98 525.00,1119.50
             528.04,1119.16 533.21,1115.64 536.00,1114.01
             541.70,1110.69 542.13,1110.99 548.00,1109.00
             548.82,1118.58 542.34,1118.61 543.20,1127.00
             543.52,1130.14 544.76,1132.36 546.35,1135.00
             549.19,1139.74 553.72,1145.75 560.00,1145.45
             563.77,1145.27 568.04,1141.56 571.00,1139.38
             571.00,1139.38 587.00,1129.00 587.00,1129.00
             589.74,1141.54 578.74,1141.55 580.17,1155.00
             581.20,1164.61 585.52,1168.62 594.00,1172.28
             597.64,1173.85 600.99,1175.48 605.00,1174.10
             607.90,1173.10 612.44,1169.33 615.00,1167.35
             622.74,1161.36 634.41,1150.01 642.00,1146.00
             643.33,1151.55 642.78,1157.60 640.90,1163.00
             639.85,1166.02 637.42,1169.96 637.42,1173.00
             637.42,1179.13 644.55,1188.21 651.00,1188.21
             656.67,1188.21 662.21,1183.28 675.04,1183.00
             674.80,1185.54 674.14,1188.61 675.04,1191.00
             678.00,1198.51 689.39,1203.99 697.00,1201.00
             704.02,1198.24 714.27,1187.22 721.00,1183.85
             725.46,1181.61 732.29,1181.67 736.99,1178.91
             742.02,1175.96 746.00,1167.97 749.69,1168.62
             752.45,1169.11 751.94,1174.94 752.17,1177.00
             752.78,1182.49 755.13,1190.70 761.02,1192.52
             765.04,1193.71 768.69,1191.85 773.00,1192.52
             776.21,1193.07 783.85,1196.35 786.00,1196.01
             788.70,1195.60 790.75,1192.99 793.00,1191.59
             795.34,1190.13 799.24,1189.31 802.00,1189.21
             810.86,1188.90 817.08,1201.18 828.00,1202.44
             835.60,1203.33 845.05,1197.47 852.00,1194.96
             852.00,1194.96 858.00,1193.29 858.00,1193.29
             863.23,1191.30 862.14,1189.79 869.00,1189.00
             872.41,1198.59 882.57,1191.68 889.00,1191.00
             889.00,1191.00 860.15,1228.00 860.15,1228.00
             846.51,1246.70 833.78,1266.16 821.91,1286.00
             821.91,1286.00 806.86,1311.00 806.86,1311.00
             806.86,1311.00 779.30,1370.00 779.30,1370.00
             775.79,1377.78 769.63,1392.22 763.96,1397.96
             751.58,1410.50 736.89,1421.60 723.00,1432.42
             723.00,1432.42 682.00,1462.95 682.00,1462.95
             682.00,1462.95 653.00,1480.69 653.00,1480.69
             653.00,1480.69 631.00,1496.12 631.00,1496.12
             621.80,1502.52 612.25,1508.42 604.17,1516.28
             604.17,1516.28 591.52,1529.09 591.52,1529.09
             591.52,1529.09 574.55,1557.00 574.55,1557.00
             571.90,1562.24 572.93,1566.07 570.41,1570.00
             567.42,1574.64 548.79,1590.97 545.23,1600.00
             543.10,1605.38 546.11,1620.36 551.14,1622.19
             553.15,1623.20 560.15,1622.06 563.00,1622.19
             563.00,1622.19 534.86,1658.00 534.86,1658.00
             534.23,1659.37 533.82,1660.45 534.30,1661.96
             535.13,1664.62 543.24,1671.62 546.00,1671.91
             547.99,1672.12 551.96,1670.01 554.00,1669.23
             558.56,1667.51 562.13,1666.66 567.00,1667.00
             567.00,1667.00 561.02,1680.00 561.02,1680.00
             561.02,1680.00 558.06,1688.00 558.06,1688.00
             558.06,1688.00 553.41,1696.00 553.41,1696.00
             551.87,1698.94 548.37,1704.43 549.64,1707.77
             550.75,1710.71 558.11,1712.51 561.00,1712.52
             561.00,1712.52 565.70,1712.52 565.70,1712.52
             569.32,1712.53 569.91,1715.67 574.04,1715.53
             578.61,1715.37 593.91,1707.12 599.00,1705.00
             599.00,1705.00 599.00,1709.00 599.00,1709.00
             599.00,1709.00 603.00,1709.00 603.00,1709.00
             602.56,1718.53 600.94,1720.63 598.90,1729.00
             598.90,1729.00 596.87,1739.00 596.87,1739.00
             596.17,1741.93 593.95,1748.86 596.02,1751.57
             597.54,1753.23 600.12,1752.37 602.00,1751.57
             606.98,1750.12 612.96,1747.58 617.42,1744.89
             623.44,1741.25 623.35,1743.85 628.00,1742.96
             630.22,1742.53 636.10,1739.68 638.00,1738.35
             646.34,1732.51 655.06,1719.07 663.00,1712.00
             663.47,1715.88 662.82,1722.54 668.97,1721.46
             670.51,1721.19 680.19,1713.35 682.00,1711.85
             682.00,1711.85 707.00,1686.91 707.00,1686.91
             707.00,1686.91 714.71,1676.55 714.71,1676.55
             718.11,1673.17 720.26,1676.79 725.00,1674.82
             728.67,1673.30 735.08,1666.12 737.90,1663.00
             737.90,1663.00 749.29,1647.00 749.29,1647.00
             761.06,1632.06 770.79,1621.03 780.29,1604.00
             780.29,1604.00 794.63,1571.00 794.63,1571.00
             799.47,1561.89 818.40,1535.83 825.34,1527.00
             825.34,1527.00 843.82,1501.00 843.82,1501.00
             846.23,1497.25 849.11,1491.09 853.04,1489.12
             857.86,1486.39 859.56,1490.53 864.04,1489.12
             868.16,1488.08 872.71,1482.93 876.00,1481.68
             879.20,1480.47 881.06,1482.18 884.91,1480.42
             889.42,1478.35 896.35,1469.72 900.00,1469.61
             906.22,1469.43 911.25,1478.19 915.45,1481.24
             919.48,1484.16 925.57,1482.89 930.00,1482.00
             930.00,1482.00 930.00,1486.00 930.00,1486.00
             935.99,1483.40 938.40,1480.56 945.00,1480.89
             953.39,1473.13 958.42,1479.51 967.00,1480.89
             974.59,1481.92 971.74,1479.56 983.00,1482.40
             986.87,1483.37 994.26,1483.15 994.27,1488.98
             994.28,1496.48 978.83,1500.79 975.14,1503.70
             972.00,1506.17 971.16,1510.40 969.81,1514.00
             965.11,1526.49 964.57,1537.77 978.00,1545.00
             978.00,1545.00 975.00,1528.00 975.00,1528.00
             981.14,1527.66 983.25,1526.38 987.96,1522.38
             996.01,1515.56 999.57,1506.24 1011.00,1505.75
             1017.19,1505.48 1030.65,1507.30 1033.98,1513.13
             1034.96,1514.85 1034.99,1517.08 1034.99,1519.00
             1034.99,1520.95 1034.96,1523.13 1033.98,1524.87
             1030.53,1530.99 1022.54,1530.93 1020.04,1531.96
             1014.00,1534.47 1012.50,1540.11 1012.00,1546.00
             1012.00,1546.00 1000.00,1547.00 1000.00,1547.00
             1002.23,1554.35 1005.47,1552.18 1008.48,1556.34
             1010.00,1558.72 1008.91,1560.48 1008.48,1563.00
             1007.99,1568.22 1009.68,1570.49 1001.00,1571.00
             1000.89,1577.03 997.06,1576.87 992.00,1577.00
             998.41,1586.55 1010.74,1579.68 1019.00,1577.96
             1023.99,1576.92 1027.65,1577.57 1032.00,1574.61
             1032.00,1574.61 1041.25,1567.10 1041.25,1567.10
             1046.18,1562.22 1047.53,1559.06 1054.00,1554.37
             1058.96,1550.78 1064.53,1549.26 1066.72,1547.87
             1069.08,1546.37 1076.41,1538.07 1078.33,1535.58
             1078.33,1535.58 1090.11,1516.91 1090.11,1516.91
             1091.81,1512.65 1089.70,1510.04 1095.30,1504.44
             1102.08,1497.66 1108.60,1496.51 1111.58,1494.28
             1118.32,1489.21 1123.75,1479.31 1127.75,1472.00
             1131.75,1464.69 1132.78,1466.09 1132.82,1457.58
             1132.87,1448.37 1126.98,1444.15 1120.88,1437.58
             1113.40,1429.53 1102.96,1417.46 1092.00,1414.25
             1089.44,1413.80 1082.93,1413.97 1080.00,1414.25
             1080.00,1414.25 1066.00,1415.82 1066.00,1415.82
             1066.00,1415.82 1054.00,1412.00 1054.00,1412.00
             1058.01,1405.99 1072.07,1386.43 1077.09,1382.85
             1081.20,1379.92 1085.45,1380.06 1090.00,1378.45
             1090.00,1378.45 1113.00,1368.10 1113.00,1368.10
             1113.00,1368.10 1134.00,1354.86 1134.00,1354.86
             1134.00,1354.86 1164.00,1339.69 1164.00,1339.69
             1164.00,1339.69 1187.00,1325.40 1187.00,1325.40
             1187.00,1325.40 1201.00,1317.29 1201.00,1317.29
             1201.00,1317.29 1213.00,1309.08 1213.00,1309.08
             1213.00,1309.08 1223.61,1302.22 1223.61,1302.22
             1226.51,1299.54 1226.64,1297.06 1230.21,1293.42
             1230.21,1293.42 1245.83,1279.00 1245.83,1279.00
             1245.83,1279.00 1274.45,1245.00 1274.45,1245.00
             1274.45,1245.00 1291.27,1223.00 1291.27,1223.00
             1318.26,1191.35 1347.75,1160.91 1369.03,1125.00
             1369.03,1125.00 1375.84,1114.00 1375.84,1114.00
             1379.79,1106.34 1380.66,1101.62 1383.44,1094.00
             1383.44,1094.00 1390.43,1074.00 1390.43,1074.00
             1390.43,1074.00 1397.20,1049.00 1397.20,1049.00
             1397.20,1049.00 1405.52,1024.00 1405.52,1024.00
             1409.29,1012.79 1421.33,990.11 1427.22,979.00
             1427.22,979.00 1448.95,938.00 1448.95,938.00
             1453.49,930.80 1467.48,914.79 1474.00,909.32
             1474.00,909.32 1486.00,900.42 1486.00,900.42
             1486.00,900.42 1492.00,896.08 1492.00,896.08
             1492.00,896.08 1511.00,887.89 1511.00,887.89
             1516.12,886.22 1541.00,882.96 1547.00,882.72
             1552.66,882.49 1563.26,885.41 1569.00,887.00
             1569.00,887.00 1568.00,885.00 1568.00,885.00
             1568.00,885.00 1576.00,889.74 1576.00,889.74
             1576.00,889.74 1585.00,894.00 1585.00,894.00
             1594.02,893.44 1600.55,901.22 1600.98,891.00
             1601.45,879.88 1596.85,870.73 1588.99,863.04
             1584.13,858.29 1581.25,857.65 1577.00,852.00
             1571.93,850.59 1563.96,836.51 1559.70,832.19
             1556.12,828.55 1548.85,825.41 1540.88,815.91
             1528.20,800.79 1519.17,783.09 1501.00,773.32
             1491.68,768.31 1477.61,764.13 1467.00,764.00
             1430.65,763.58 1403.82,764.72 1372.00,785.09
             1355.83,795.44 1343.71,807.86 1330.00,820.96
             1330.00,820.96 1301.17,848.17 1301.17,848.17
             1301.17,848.17 1291.00,858.99 1291.00,858.99
             1286.12,863.76 1267.63,879.00 1262.00,882.00
             1261.19,878.68 1261.04,877.41 1261.00,874.00
             1260.90,865.08 1260.81,855.80 1262.47,847.00
             1262.47,847.00 1265.32,837.00 1265.32,837.00
             1265.32,837.00 1269.83,812.00 1269.83,812.00
             1269.83,812.00 1270.66,801.00 1270.66,801.00
             1270.66,791.48 1268.75,786.56 1273.82,777.00
             1277.61,769.88 1286.05,767.19 1293.96,756.00
             1300.67,746.50 1301.13,742.67 1305.34,733.00
             1305.34,733.00 1310.31,723.00 1310.31,723.00
             1310.31,723.00 1311.54,718.00 1311.54,718.00
             1313.37,712.87 1317.21,711.25 1319.64,704.00
             1321.91,697.20 1322.09,677.81 1322.00,670.00
             1321.88,659.87 1317.57,641.49 1312.04,633.00
             1306.66,624.76 1300.02,623.70 1298.90,618.96
             1298.21,616.06 1302.51,603.02 1303.42,599.00
             1304.77,592.01 1303.98,580.29 1303.42,573.00
             1303.02,565.28 1308.41,545.21 1309.72,536.00
             1309.72,536.00 1311.17,520.00 1311.17,520.00
             1311.17,520.00 1313.00,502.00 1313.00,502.00
             1313.00,502.00 1313.00,490.00 1313.00,490.00
             1313.00,490.00 1314.00,473.00 1314.00,473.00
             1314.00,473.00 1314.68,453.00 1314.68,453.00
             1314.68,453.00 1314.08,440.00 1314.08,440.00
             1314.08,440.00 1314.08,380.00 1314.08,380.00
             1314.08,380.00 1314.08,362.00 1314.08,362.00
             1314.08,362.00 1314.08,337.00 1314.08,337.00
             1314.09,333.82 1314.62,332.84 1314.94,330.00
             1314.94,330.00 1314.94,311.00 1314.94,311.00
             1314.94,311.00 1318.57,284.00 1318.57,284.00
             1318.57,284.00 1321.42,262.00 1321.42,262.00
             1321.42,262.00 1325.63,235.00 1325.63,235.00
             1325.63,235.00 1327.17,216.00 1327.17,216.00
             1327.17,216.00 1329.00,198.00 1329.00,198.00
             1329.07,191.40 1329.52,183.90 1325.92,178.04
             1321.96,171.60 1309.87,168.30 1303.00,165.55
             1300.06,164.38 1296.17,162.29 1293.00,162.39
             1289.77,162.50 1286.63,164.59 1284.30,166.68
             1280.31,170.26 1278.07,174.95 1274.68,178.99
             1274.68,178.99 1263.77,192.00 1263.77,192.00
             1263.77,192.00 1257.55,203.00 1257.55,203.00
             1257.55,203.00 1247.18,221.00 1247.18,221.00
             1242.63,230.33 1235.11,255.50 1233.00,266.00
             1227.68,261.51 1228.44,258.40 1227.41,252.00
             1227.41,252.00 1223.75,232.00 1223.75,232.00
             1223.75,232.00 1219.44,212.00 1219.44,212.00
             1215.59,189.69 1218.18,188.35 1207.26,166.00
             1205.43,162.25 1203.73,158.40 1201.27,155.00
             1195.63,147.19 1184.80,144.34 1176.00,141.22
             1172.55,139.99 1167.68,138.31 1164.09,139.74
             1160.44,141.20 1157.31,146.66 1155.44,150.00
             1148.93,161.64 1148.90,168.54 1146.05,175.00
             1140.12,188.42 1138.21,194.11 1137.00,209.00 Z
           M 1567.00,840.00
           C 1567.00,840.00 1567.00,841.00 1567.00,841.00
             1567.00,841.00 1568.00,840.00 1568.00,840.00
             1568.00,840.00 1567.00,840.00 1567.00,840.00 Z
           M 1564.00,883.00
           C 1564.00,883.00 1564.00,884.00 1564.00,884.00
             1564.00,884.00 1563.00,883.00 1563.00,883.00
             1563.00,883.00 1564.00,883.00 1564.00,883.00 Z
           M 1552.00,884.00
           C 1552.00,884.00 1552.00,885.00 1552.00,885.00
             1552.00,885.00 1553.00,884.00 1553.00,884.00
             1553.00,884.00 1552.00,884.00 1552.00,884.00 Z
           M 1556.00,885.00
           C 1556.00,885.00 1556.00,886.00 1556.00,886.00
             1556.00,886.00 1557.00,885.00 1557.00,885.00
             1557.00,885.00 1556.00,885.00 1556.00,885.00 Z
           M 1570.00,887.00
           C 1570.00,887.00 1570.00,888.00 1570.00,888.00
             1570.00,888.00 1571.00,887.00 1571.00,887.00
             1571.00,887.00 1570.00,887.00 1570.00,887.00 Z" />
</svg>
